HIERARCHY
ROOT root
{
	OFFSET 0.000000 0.000000 0.000000
	CHANNELS 6 Xposition Yposition Zposition Zrotation Yrotation Xrotation
	JOINT lhip
	{
		OFFSET 0.058581 -0.082280 -0.017664
		CHANNELS 3 Zrotation Yrotation Xrotation
		JOINT lknee
		{
			OFFSET 0.043451 -0.386469 0.008037
			CHANNELS 3 Zrotation Yrotation Xrotation
			JOINT lankle
			{
				OFFSET -0.014790 -0.426874 -0.037428
				CHANNELS 3 Zrotation Yrotation Xrotation
				JOINT ltoe
				{
					OFFSET 0.041054 -0.060286 0.122042
					CHANNELS 3 Zrotation Yrotation Xrotation
					End Site
					{
						OFFSET 0.000000 0.000000 0.000000
					}
				}
			}
		}
	}
	JOINT rhip
	{
		OFFSET -0.060310 -0.090513 -0.013543
		CHANNELS 3 Zrotation Yrotation Xrotation
		JOINT rknee
		{
			OFFSET -0.043257 -0.383688 -0.004843
			CHANNELS 3 Zrotation Yrotation Xrotation
			JOINT rankle
			{
				OFFSET 0.019056 -0.420046 -0.034562
				CHANNELS 3 Zrotation Yrotation Xrotation
				JOINT rtoe
				{
					OFFSET -0.034840 -0.062106 0.130323
					CHANNELS 3 Zrotation Yrotation Xrotation
					End Site
					{
						OFFSET 0.000000 0.000000 0.000000
					}
				}
			}
		}
	}
	JOINT lowerback
	{
		OFFSET 0.004439 0.124404 -0.038385
		CHANNELS 3 Zrotation Yrotation Xrotation
		JOINT upperback
		{
			OFFSET 0.004488 0.137956 0.026820
			CHANNELS 3 Zrotation Yrotation Xrotation
			JOINT chest
			{
				OFFSET -0.002265 0.056032 0.002855
				CHANNELS 3 Zrotation Yrotation Xrotation
				JOINT lowerneck
				{
					OFFSET -0.013390 0.211636 -0.033468
					CHANNELS 3 Zrotation Yrotation Xrotation
					JOINT upperneck
					{
						OFFSET 0.010113 0.088937 0.050410
						CHANNELS 3 Zrotation Yrotation Xrotation
						End Site
						{
							OFFSET 0.000000 0.000000 0.000000
						}
					}
				}
				JOINT lclavicle
				{
					OFFSET 0.071702 0.114000 -0.018898
					CHANNELS 3 Zrotation Yrotation Xrotation
					JOINT lshoulder
					{
						OFFSET 0.122921 0.045205 -0.019046
						CHANNELS 3 Zrotation Yrotation Xrotation
						JOINT lelbow
						{
							OFFSET 0.255332 -0.015649 -0.022946
							CHANNELS 3 Zrotation Yrotation Xrotation
							JOINT lwrist
							{
								OFFSET 0.265709 0.012698 -0.007375
								CHANNELS 3 Zrotation Yrotation Xrotation
								End Site
								{
									OFFSET 0.000000 0.000000 0.000000
								}
							}
						}
					}
				}
				JOINT rclavicle
				{
					OFFSET -0.082954 0.112472 -0.023707
					CHANNELS 3 Zrotation Yrotation Xrotation
					JOINT rshoulder
					{
						OFFSET -0.113228 0.046853 -0.008472
						CHANNELS 3 Zrotation Yrotation Xrotation
						JOINT relbow
						{
							OFFSET -0.260127 -0.014369 -0.031269
							CHANNELS 3 Zrotation Yrotation Xrotation
							JOINT rwrist
							{
								OFFSET -0.269108 0.006794 -0.006027
								CHANNELS 3 Zrotation Yrotation Xrotation
								End Site
								{
									OFFSET 0.000000 0.000000 0.000000
								}
							}
						}
					}
				}
			}
		}
	}
}
MOTION
Frames: 7
Frame Time: 0.033333
1.752992 0.398664 1.024938 -20.997567 -1.241440 90.315032 7.600476 2.466581 1.553528 -5.624389 -0.670415 40.345008 -2.122621 7.967605 -5.474598 0.000000 -0.000000 0.000000 6.026415 -0.721835 -13.987188 -5.574257 -9.818606 6.842118 -4.019618 -14.193862 -11.075890 0.000000 -0.000000 0.000000 -2.062029 -0.246894 5.347717 2.966053 -0.182714 -1.229005 1.057377 -0.878524 -0.117809 8.936966 -13.358723 -5.720518 3.849396 -19.686135 16.811575 -22.836922 8.071378 4.134046 -61.183555 -8.471804 7.219307 13.315184 -21.857731 5.022935 2.077581 -18.464684 -5.017158 24.936939 -1.234974 1.553775 57.343899 0.169899 12.474427 -10.018357 20.245338 8.862687 4.270005 9.741852 -5.923389 
1.737990 0.383167 1.025346 -22.538242 -1.303118 90.354058 7.342236 2.934913 -3.619231 -5.163450 1.416951 48.529386 -1.307021 8.835560 -7.210468 0.000000 -0.000000 0.000000 6.962438 -1.184463 -12.082677 -5.534455 -8.790702 5.837953 -4.507374 -13.638061 -12.217832 0.000000 -0.000000 0.000000 -1.502995 0.438677 6.039774 2.896813 -0.456726 -1.621058 0.761323 -0.995439 -0.234892 8.350107 -13.516708 -6.345805 3.652045 -19.415187 16.441117 -23.065286 7.311865 4.196169 -60.836863 -7.989658 7.070565 13.068153 -22.134214 6.561982 -2.608718 -16.261071 -5.160268 24.516837 -0.723810 1.781647 56.945765 0.289177 12.380731 -9.629117 22.287783 9.417304 6.253058 9.747797 -7.475963 
1.722526 0.367919 1.024777 -25.406395 -0.996785 90.440032 6.895044 1.686410 -8.174727 -5.348922 4.299310 53.502505 1.545905 4.074397 -2.711219 0.000000 -0.000000 0.000000 8.255672 0.319566 -9.491573 -5.401086 -6.415656 3.652047 -6.241193 -15.473189 -11.970093 0.000000 -0.000000 0.000000 -1.129161 1.673757 5.965954 2.776016 -0.295990 -0.667598 1.106098 -0.657028 -0.783332 7.282636 -14.667109 -7.788104 3.748143 -18.535330 19.030365 -21.046948 5.046474 4.622930 -64.014431 -7.205359 4.215589 14.454736 -21.367504 4.062639 -5.172195 -15.670713 1.260429 22.609768 2.742182 3.614223 58.392559 -0.081759 9.443787 -10.367584 24.188264 7.461666 8.444239 10.828797 -6.282960 
1.703833 0.349683 1.026106 -28.654725 -1.022402 90.040558 6.184559 0.623486 -13.068596 -3.639698 7.225402 56.215120 1.848344 6.728459 -6.438353 0.000000 -0.000000 0.000000 9.301391 -0.017760 -5.701918 -5.465469 -3.916643 0.720425 -5.624566 -15.032427 -12.510451 0.000000 -0.000000 0.000000 -1.484077 3.284180 6.337782 3.022819 -0.645760 -0.348641 1.300539 -0.356450 -0.137254 7.546669 -14.450615 -7.957890 3.736453 -18.155080 19.003478 -21.273534 4.896910 4.362798 -64.509777 -7.615050 4.545334 14.613443 -21.596845 4.068541 -0.778886 -18.788923 0.491792 22.220024 3.207184 3.470069 58.193077 1.680435 10.419815 -10.835351 24.908624 8.237561 5.540760 11.045639 -6.592477 
1.692882 0.338688 1.026628 -30.827649 -0.956616 89.817740 5.776975 0.470944 -15.671680 -3.617492 7.831868 55.721698 0.003973 6.478930 -11.783574 0.000000 -0.000000 0.000000 9.904585 -0.769761 -3.379327 -5.670207 -3.417509 -1.165136 -4.416723 -13.531187 -13.139626 0.000000 -0.000000 0.000000 -1.554600 4.361426 6.698566 3.073922 -1.012159 -0.147598 1.458200 0.109582 -0.244953 7.418686 -13.766748 -7.249562 3.879987 -18.502877 18.639931 -20.802573 4.430438 4.299913 -65.204795 -7.132805 4.609209 14.842058 -22.204786 3.900014 -0.551588 -18.202667 -0.633881 22.239075 3.565560 3.471410 57.871378 2.332566 10.111239 -11.057686 25.836772 8.560923 3.897312 10.636770 -6.240339 
1.679920 0.324543 1.025646 -33.790723 -1.153728 89.980119 4.924925 -0.337719 -19.301320 -2.527161 9.152046 53.274632 -0.643483 7.262216 -12.342177 0.000000 -0.000000 0.000000 9.941352 -1.203377 -0.671659 -5.790081 -1.263383 -3.705838 -3.967137 -12.007643 -13.755038 0.000000 -0.000000 0.000000 -1.529722 5.521150 6.996960 2.933894 -1.336188 -0.222273 1.321477 0.505954 -0.219309 7.452798 -13.214058 -7.082771 4.083724 -18.761870 18.798469 -20.322518 4.502827 3.925628 -65.612452 -6.629403 4.999671 14.873373 -23.278510 3.762161 -0.095557 -17.313721 -1.677959 22.173518 3.644485 3.218610 58.146442 3.353143 10.253241 -12.134402 27.198038 7.294801 2.383537 10.034550 -5.957364 
1.667284 0.309130 1.024063 -36.691821 -1.461497 89.950914 4.224665 -1.733092 -21.429364 -0.990993 10.618900 47.703894 -1.013485 9.772786 -16.057399 0.000000 -0.000000 0.000000 9.447453 -2.051193 1.799355 -5.503519 0.657946 -5.743570 -2.688324 -11.440993 -14.768011 0.000000 -0.000000 0.000000 -1.645339 6.752190 7.738935 2.810079 -1.535891 -0.758804 1.235870 0.676262 0.032406 7.543589 -12.557411 -7.591421 3.872964 -18.963021 19.135276 -20.616596 4.832981 3.520343 -64.816121 -6.564153 5.729875 13.522955 -24.028150 3.525283 6.141580 -20.875947 -3.312974 22.330013 3.239315 2.279782 57.768829 3.918660 11.450004 -12.034707 28.721048 6.941077 -0.171277 10.478707 -6.463060 
